# Blender 3.1.0
# www.blender.org
mtllib bridge.mtl
o Steps
v -0.812500 0.038047 0.950415
v 0.812500 0.038047 0.950415
v 0.812500 0.186697 0.756691
v -0.812500 0.186697 0.756691
v -0.812500 0.248663 0.649364
v 0.812500 0.248663 0.649364
v 0.812500 0.342108 0.423768
v -0.812500 0.342108 0.423768
v -0.812500 0.374183 0.304060
v 0.812500 0.374183 0.304060
v 0.812500 0.406056 0.061965
v -0.812500 0.406056 0.061965
v -0.812500 0.406056 -0.061965
v 0.812500 0.406056 -0.061965
v 0.812500 0.374183 -0.304060
v -0.812500 0.374183 -0.304060
v -0.812500 0.342108 -0.423768
v 0.812500 0.342108 -0.423768
v 0.812500 0.248663 -0.649364
v -0.812500 0.248663 -0.649364
v -0.812500 0.186697 -0.756691
v 0.812500 0.186697 -0.756691
v 0.812500 0.038048 -0.950415
v -0.812500 0.038048 -0.950415
v -0.812500 0.312218 0.295902
v -0.812500 0.344090 0.053807
v 0.812500 0.344090 0.053807
v 0.812500 0.312218 0.295902
v -0.812500 0.344090 -0.053807
v -0.812500 0.312218 -0.295902
v 0.812500 0.312218 -0.295902
v 0.812500 0.344090 -0.053807
v -0.812500 0.137113 -0.718644
v -0.812500 -0.011537 -0.912368
v 0.812500 -0.011537 -0.912368
v 0.812500 0.137113 -0.718644
v -0.812500 0.284365 -0.399850
v -0.812500 0.190920 -0.625446
v 0.812500 0.190920 -0.625446
v 0.812500 0.284365 -0.399850
v -0.812500 0.190920 0.625446
v -0.812500 0.284365 0.399850
v 0.812500 0.284365 0.399850
v 0.812500 0.190920 0.625446
v -0.812500 -0.011537 0.912368
v -0.812500 0.137113 0.718644
v 0.812500 0.137113 0.718644
v 0.812500 -0.011537 0.912368
vn -0.0000 -0.7934 -0.6088
vn -0.0000 -0.9239 -0.3827
vn -0.0000 -0.9914 -0.1305
vn -0.0000 -0.9914 0.1305
vn -0.0000 -0.9239 0.3827
vn -0.0000 -0.7934 0.6088
vn -0.0000 0.9914 0.1305
vn 1.0000 -0.0000 -0.0000
vn -0.0000 0.1305 -0.9914
vn -1.0000 -0.0000 -0.0000
vn -0.0000 -0.1305 0.9914
vn -0.0000 0.9914 -0.1305
vn -0.0000 0.1305 0.9914
vn -0.0000 -0.1305 -0.9914
vn -0.0000 0.7934 -0.6088
vn -0.0000 -0.6088 -0.7934
vn -0.0000 0.6088 0.7934
vn -0.0000 0.9239 -0.3827
vn -0.0000 0.3827 0.9239
vn -0.0000 -0.3827 -0.9239
vn -0.0000 0.9239 0.3827
vn -0.0000 -0.3827 0.9239
vn -0.0000 0.3827 -0.9239
vn -0.0000 0.7934 0.6088
vn -0.0000 0.6088 -0.7934
vn -0.0000 -0.6088 0.7934
vt 0.819524 0.840088
vt 0.200476 0.840088
vt 0.200476 0.757411
vt 0.819524 0.757412
vt 0.819524 0.715088
vt 0.200476 0.715088
vt 0.200476 0.632412
vt 0.819524 0.632412
vt 0.819524 0.590088
vt 0.200476 0.590088
vt 0.200476 0.507412
vt 0.819524 0.507412
vt 0.819524 0.465088
vt 0.200476 0.465088
vt 0.200476 0.382412
vt 0.819524 0.382412
vt 0.819524 0.340088
vt 0.200476 0.340088
vt 0.200476 0.257412
vt 0.819524 0.257412
vt 0.819524 0.215088
vt 0.200476 0.215088
vt 0.200476 0.132412
vt 0.819524 0.132412
vt 0.819524 0.590088
vt 0.819524 0.507412
vt 0.200476 0.507412
vt 0.200476 0.590088
vt 0.819524 0.465088
vt 0.819524 0.382412
vt 0.200476 0.382412
vt 0.200476 0.465088
vt 0.819524 0.215088
vt 0.819524 0.132412
vt 0.200476 0.132412
vt 0.200476 0.215088
vt 0.819524 0.340088
vt 0.819524 0.257412
vt 0.200476 0.257412
vt 0.200476 0.340088
vt 0.819524 0.715088
vt 0.819524 0.632412
vt 0.200476 0.632412
vt 0.200476 0.715088
vt 0.819524 0.840088
vt 0.819524 0.757412
vt 0.200476 0.757411
vt 0.200476 0.840088
s 0
usemtl Wood
f 4/4/1 2/2/1 1/1/1
f 8/8/2 6/6/2 5/5/2
f 9/9/3 11/11/3 10/10/3
f 16/16/4 14/14/4 13/13/4
f 20/20/5 18/18/5 17/17/5
f 24/24/6 22/22/6 21/21/6
f 25/25/7 27/27/7 26/26/7
f 9/9/8 26/26/8 12/12/8
f 10/10/9 25/25/9 9/9/9
f 11/11/10 28/28/10 10/10/10
f 12/12/11 27/27/11 11/11/11
f 32/32/12 30/30/12 29/29/12
f 15/15/10 32/32/10 14/14/10
f 16/16/13 31/31/13 15/15/13
f 13/13/8 30/30/8 16/16/8
f 14/14/14 29/29/14 13/13/14
f 36/36/15 34/34/15 33/33/15
f 22/22/16 33/33/16 21/21/16
f 23/23/10 36/36/10 22/22/10
f 24/24/17 35/35/17 23/23/17
f 21/21/8 34/34/8 24/24/8
f 40/40/18 38/38/18 37/37/18
f 19/19/10 40/40/10 18/18/10
f 20/20/19 39/39/19 19/19/19
f 20/20/8 37/37/8 38/38/8
f 18/18/20 37/37/20 17/17/20
f 44/44/21 42/42/21 41/41/21
f 8/8/22 43/43/22 7/7/22
f 5/5/8 42/42/8 8/8/8
f 6/6/23 41/41/23 5/5/23
f 7/7/10 44/44/10 6/6/10
f 45/45/24 47/47/24 46/46/24
f 2/2/25 45/45/25 1/1/25
f 3/3/10 48/48/10 2/2/10
f 4/4/26 47/47/26 3/3/26
f 4/4/8 45/45/8 46/46/8
f 4/4/1 3/3/1 2/2/1
f 8/8/2 7/7/2 6/6/2
f 9/9/3 12/12/3 11/11/3
f 16/16/4 15/15/4 14/14/4
f 20/20/5 19/19/5 18/18/5
f 24/24/6 23/23/6 22/22/6
f 25/25/7 28/28/7 27/27/7
f 9/9/8 25/25/8 26/26/8
f 10/10/9 28/28/9 25/25/9
f 11/11/10 27/27/10 28/28/10
f 12/12/11 26/26/11 27/27/11
f 32/32/12 31/31/12 30/30/12
f 15/15/10 31/31/10 32/32/10
f 16/16/13 30/30/13 31/31/13
f 13/13/8 29/29/8 30/30/8
f 14/14/14 32/32/14 29/29/14
f 36/36/15 35/35/15 34/34/15
f 22/22/16 36/36/16 33/33/16
f 23/23/10 35/35/10 36/36/10
f 24/24/17 34/34/17 35/35/17
f 21/21/8 33/33/8 34/34/8
f 40/40/18 39/39/18 38/38/18
f 19/19/10 39/39/10 40/40/10
f 20/20/19 38/38/19 39/39/19
f 20/20/8 17/17/8 37/37/8
f 18/18/20 40/40/20 37/37/20
f 44/44/21 43/43/21 42/42/21
f 8/8/22 42/42/22 43/43/22
f 5/5/8 41/41/8 42/42/8
f 6/6/23 44/44/23 41/41/23
f 7/7/10 43/43/10 44/44/10
f 45/45/24 48/48/24 47/47/24
f 2/2/25 48/48/25 45/45/25
f 3/3/10 47/47/10 48/48/10
f 4/4/26 46/46/26 47/47/26
f 4/4/8 1/1/8 45/45/8
o Support
v 0.625000 0.148196 0.662911
v -0.625000 0.148196 0.662911
v -0.625000 -0.062502 0.937498
v 0.625000 -0.062502 0.937498
v 0.625000 0.186472 -0.685009
v -0.625000 0.186471 -0.685009
v -0.625000 0.323337 -0.354587
v 0.625000 0.323337 -0.354587
v 0.625000 -0.031250 0.968750
v -0.625000 -0.031250 0.968750
v -0.625000 0.186471 0.685009
v 0.625000 0.186472 0.685009
v -0.625000 0.323337 0.354587
v 0.625000 0.323337 0.354587
v -0.625000 0.370019 -0.000000
v 0.625000 0.370019 -0.000000
v -0.625000 -0.031250 -0.968750
v 0.625000 -0.031250 -0.968750
v 0.625000 0.148196 -0.662911
v -0.625000 0.148196 -0.662911
v -0.625000 0.280646 -0.343148
v 0.625000 0.280646 -0.343148
v 0.625000 0.280646 0.343148
v -0.625000 0.280646 0.343148
v -0.625000 0.325822 -0.000000
v 0.625000 0.325822 -0.000000
v -0.625000 -0.062502 -0.937497
v 0.625000 -0.062502 -0.937497
v -0.500000 0.148196 0.662911
v 0.500000 0.148196 0.662911
v 0.500000 -0.062502 0.937498
v -0.500000 -0.062502 0.937498
v 0.500000 0.186472 -0.685009
v -0.500000 0.186471 -0.685009
v -0.500000 0.323337 -0.354587
v 0.500000 0.323337 -0.354587
v -0.500000 0.186471 0.685009
v 0.500000 0.186472 0.685009
v 0.500000 -0.031250 0.968750
v -0.500000 -0.031250 0.968750
v -0.500000 0.323337 0.354587
v 0.500000 0.323337 0.354587
v -0.500000 0.370019 -0.000000
v 0.500000 0.370019 -0.000000
v -0.500000 -0.031250 -0.968750
v 0.500000 -0.031250 -0.968750
v -0.500000 0.148196 -0.662911
v 0.500000 0.148196 -0.662911
v -0.500000 0.280646 -0.343148
v 0.500000 0.280646 -0.343148
v -0.500000 0.280646 0.343148
v 0.500000 0.280646 0.343148
v 0.500000 0.325822 -0.000000
v -0.500000 0.325822 -0.000000
v -0.500000 -0.062502 -0.937497
v 0.500000 -0.062502 -0.937497
vn -0.0000 -0.7934 -0.6088
vn -0.0000 0.9239 -0.3827
vn -0.0000 0.7934 0.6088
vn -0.0000 0.9239 0.3827
vn -0.0000 0.9914 0.1305
vn -0.0000 0.7934 -0.6088
vn -0.0000 -0.9239 0.3827
vn -0.0000 0.9914 -0.1305
vn -0.0000 -0.9239 -0.3827
vn -0.0000 -0.9914 0.1305
vn -0.0000 -0.7934 0.6088
vn -0.0000 -0.9914 -0.1305
vn -0.0000 -0.7071 -0.7071
vn -0.0000 -0.7071 0.7071
vn -1.0000 -0.0000 -0.0000
vn 1.0000 -0.0000 -0.0000
vt 0.715054 0.157922
vt 0.271948 0.479865
vt 0.284946 0.157922
vt 0.271948 0.479865
vt 0.284946 0.016200
vt 0.284946 0.371118
vt 0.177466 0.371118
vt 0.715054 0.016200
vt 0.177466 0.371117
vt 0.715054 0.853623
vt 0.735748 0.499620
vt 0.284946 0.853623
vt 0.735748 0.499620
vt 0.284946 0.683082
vt 0.622055 0.570261
vt 0.715054 0.683082
vt 0.622055 0.570261
vt 0.715054 0.000069
vt 0.166713 0.387248
vt 0.284946 0.387248
vt 0.284946 0.000069
vt 0.166713 0.387248
vt 0.284946 0.146516
vt 0.264344 0.499620
vt 0.715054 0.146516
vt 0.264344 0.499620
vt 0.284946 0.317057
vt 0.378038 0.570261
vt 0.715054 0.317057
vt 0.378038 0.570261
vt 0.284946 0.500069
vt 0.500046 0.594355
vt 0.715054 0.500069
vt 0.500046 0.594355
vt 0.284946 1.000069
vt 0.833380 0.387248
vt 0.715054 1.000069
vt 0.715054 0.387248
vt 0.833380 0.387248
vt 0.715054 0.842217
vt 0.728145 0.479865
vt 0.284946 0.842217
vt 0.728145 0.479865
vt 0.284946 0.677178
vt 0.618119 0.548226
vt 0.715054 0.677178
vt 0.618119 0.548226
vt 0.715054 0.322961
vt 0.381974 0.548226
vt 0.284946 0.322961
vt 0.381974 0.548226
vt 0.284946 0.500069
vt 0.500046 0.571543
vt 0.715054 0.500069
vt 0.500046 0.571543
vt 0.284946 0.983939
vt 0.822626 0.371118
vt 0.715054 0.983939
vt 0.715054 0.371118
vt 0.822626 0.371118
vt 0.327957 0.157922
vt 0.271948 0.479865
vt 0.672043 0.157922
vt 0.271948 0.479865
vt 0.672043 0.016200
vt 0.177466 0.371118
vt 0.327957 0.016200
vt 0.327957 0.371118
vt 0.177466 0.371118
vt 0.672043 0.853623
vt 0.735748 0.499620
vt 0.327957 0.853623
vt 0.735748 0.499620
vt 0.327957 0.683082
vt 0.622055 0.570261
vt 0.672043 0.683082
vt 0.622055 0.570261
vt 0.327957 0.146516
vt 0.264344 0.499620
vt 0.672043 0.146516
vt 0.264344 0.499620
vt 0.672043 0.000069
vt 0.166713 0.387248
vt 0.327957 0.000069
vt 0.327957 0.387248
vt 0.166713 0.387248
vt 0.327957 0.317057
vt 0.378038 0.570261
vt 0.672043 0.317057
vt 0.378038 0.570261
vt 0.327957 0.500069
vt 0.500046 0.594355
vt 0.672043 0.500069
vt 0.500046 0.594355
vt 0.327957 1.000069
vt 0.833380 0.387248
vt 0.672043 0.387248
vt 0.672043 1.000069
vt 0.833380 0.387248
vt 0.327957 0.842217
vt 0.728145 0.479865
vt 0.672043 0.842217
vt 0.728145 0.479865
vt 0.327957 0.677178
vt 0.618119 0.548226
vt 0.672043 0.677178
vt 0.618119 0.548226
vt 0.327957 0.322961
vt 0.381974 0.548226
vt 0.672043 0.322961
vt 0.381974 0.548226
vt 0.672043 0.500069
vt 0.500046 0.571543
vt 0.327957 0.500069
vt 0.500046 0.571543
vt 0.327957 0.983939
vt 0.822626 0.371118
vt 0.672043 0.983939
vt 0.672043 0.371118
vt 0.822626 0.371118
s 0
usemtl Material
f 49/49/27 79/113/27 78/111/27
f 50/51/27 80/115/27 51/53/27
f 54/60/28 83/122/28 82/120/28
f 56/64/28 81/118/28 84/124/28
f 58/69/29 85/126/29 59/71/29
f 60/73/29 87/130/29 57/66/29
f 62/77/30 86/128/30 60/73/30
f 59/71/30 89/135/30 61/75/30
f 64/81/31 90/137/31 62/77/31
f 61/75/31 91/139/31 63/79/31
f 66/85/32 81/118/32 53/58/32
f 54/60/32 93/143/32 65/83/32
f 67/88/33 98/154/33 96/150/33
f 69/92/33 95/148/33 97/152/33
f 63/79/34 83/122/34 55/62/34
f 64/81/34 84/124/34 92/141/34
f 71/96/35 78/111/35 100/158/35
f 72/98/35 77/109/35 50/51/35
f 70/94/36 101/160/36 98/154/36
f 69/92/36 102/162/36 73/100/36
f 75/104/37 95/148/37 68/90/37
f 76/106/37 96/150/37 104/166/37
f 73/100/38 99/156/38 72/98/38
f 74/102/38 100/158/38 101/160/38
f 65/83/39 103/164/39 75/104/39
f 66/86/39 104/167/39 94/145/39
f 52/56/40 87/130/40 79/113/40
f 51/54/40 88/133/40 58/68/40
f 61/76/41 63/80/41 73/101/41
f 64/82/42 71/97/42 74/103/42
f 83/123/42 91/140/42 102/163/42
f 90/138/41 92/142/41 101/161/41
f 49/49/27 52/56/27 79/113/27
f 50/51/27 77/109/27 80/115/27
f 54/60/28 55/62/28 83/122/28
f 56/64/28 53/58/28 81/118/28
f 58/69/29 88/132/29 85/126/29
f 60/73/29 86/128/29 87/130/29
f 62/77/30 90/137/30 86/128/30
f 59/71/30 85/126/30 89/135/30
f 64/81/31 92/141/31 90/137/31
f 61/75/31 89/135/31 91/139/31
f 66/85/32 94/146/32 81/118/32
f 54/60/32 82/120/32 93/143/32
f 67/88/33 70/94/33 98/154/33
f 69/92/33 68/90/33 95/148/33
f 63/79/34 91/139/34 83/122/34
f 64/81/34 56/64/34 84/124/34
f 71/96/35 49/49/35 78/111/35
f 72/98/35 99/156/35 77/109/35
f 70/94/36 74/102/36 101/160/36
f 69/92/36 97/152/36 102/162/36
f 75/104/37 103/164/37 95/148/37
f 76/106/37 67/88/37 96/150/37
f 73/100/38 102/162/38 99/156/38
f 74/102/38 71/96/38 100/158/38
f 65/83/39 93/143/39 103/164/39
f 66/86/39 76/107/39 104/167/39
f 52/56/40 57/66/40 87/130/40
f 51/54/40 80/116/40 88/133/40
f 50/52/41 51/55/41 59/72/41
f 51/55/41 58/70/41 59/72/41
f 54/61/41 65/84/41 75/105/41
f 54/61/41 75/105/41 68/91/41
f 72/99/41 50/52/41 59/72/41
f 55/63/41 54/61/41 68/91/41
f 55/63/41 68/91/41 69/93/41
f 72/99/41 59/72/41 61/76/41
f 55/63/41 69/93/41 73/101/41
f 73/101/41 72/99/41 61/76/41
f 63/80/41 55/63/41 73/101/41
f 60/74/42 57/67/42 52/57/42
f 60/74/42 52/57/42 49/50/42
f 76/108/42 66/87/42 53/59/42
f 67/89/42 76/108/42 53/59/42
f 62/78/42 60/74/42 49/50/42
f 62/78/42 49/50/42 71/97/42
f 67/89/42 53/59/42 56/65/42
f 70/95/42 67/89/42 56/65/42
f 64/82/42 62/78/42 71/97/42
f 74/103/42 70/95/42 64/82/42
f 70/95/42 56/65/42 64/82/42
f 103/165/42 93/144/42 82/121/42
f 85/127/42 88/134/42 80/117/42
f 85/127/42 80/117/42 77/110/42
f 95/149/42 103/165/42 82/121/42
f 97/153/42 95/149/42 83/123/42
f 95/149/42 82/121/42 83/123/42
f 89/136/42 85/127/42 77/110/42
f 89/136/42 77/110/42 99/157/42
f 89/136/42 99/157/42 102/163/42
f 102/163/42 97/153/42 83/123/42
f 91/140/42 89/136/42 102/163/42
f 79/114/41 87/131/41 78/112/41
f 87/131/41 86/129/41 78/112/41
f 81/119/41 94/147/41 104/168/41
f 81/119/41 104/168/41 96/151/41
f 100/159/41 78/112/41 86/129/41
f 84/125/41 81/119/41 96/151/41
f 84/125/41 96/151/41 98/155/41
f 100/159/41 86/129/41 90/138/41
f 84/125/41 98/155/41 92/142/41
f 98/155/41 101/161/41 92/142/41
f 101/161/41 100/159/41 90/138/41
