# Blender 3.1.0
# www.blender.org
mtllib start.mtl
o Cylinder
v 0.968750 -0.031250 -1.000000
v 0.968750 0.000000 -0.968750
v 1.000000 -0.031250 -0.968750
v 0.968750 -0.468750 -1.000000
v 1.000000 -0.468750 -0.968750
v 0.968750 -0.500000 -0.968750
v -0.968750 0.000000 -0.968750
v -0.968750 -0.031250 -1.000000
v -1.000000 -0.031250 -0.968750
v -1.000000 -0.468750 -0.968750
v -0.968750 -0.468750 -1.000000
v -0.968750 -0.500000 -0.968750
v 1.038456 -0.500000 -0.538456
v 1.060660 -0.468750 -0.560660
v 1.038456 0.000000 -0.538456
v 1.060660 -0.031250 -0.560660
v 1.247204 -0.468750 -0.333355
v 1.221095 -0.500000 -0.315910
v 1.221095 0.000000 -0.315910
v 1.247204 -0.031250 -0.333355
v 1.356808 -0.500000 -0.062009
v 1.385819 -0.468750 -0.074025
v 1.356808 0.000000 -0.062009
v 1.385819 -0.031250 -0.074025
v 1.471178 -0.468750 0.207364
v 1.440380 -0.500000 0.213490
v 1.440380 0.000000 0.213490
v 1.471178 -0.031250 0.207364
v 1.500000 -0.468750 0.500000
v 1.468599 -0.500000 0.500000
v 1.468599 0.000000 0.500000
v 1.500000 -0.031250 0.500000
v 1.471178 -0.468750 0.792636
v 1.440380 -0.500000 0.786510
v 1.440380 0.000000 0.786510
v 1.471178 -0.031250 0.792636
v 1.385819 -0.468750 1.074025
v 1.356808 -0.500000 1.062008
v 1.356808 0.000000 1.062008
v 1.385819 -0.031250 1.074025
v 1.247205 -0.468750 1.333355
v 1.221095 -0.500000 1.315910
v 1.221095 0.000000 1.315910
v 1.247205 -0.031250 1.333355
v 1.060660 -0.468750 1.560660
v 1.038456 -0.500000 1.538456
v 1.038456 0.000000 1.538456
v 1.060660 -0.031250 1.560660
v 0.815910 -0.500000 1.721096
v 0.833355 -0.468750 1.747205
v 0.815910 0.000000 1.721096
v 0.833355 -0.031250 1.747205
v 0.562009 -0.500000 1.856808
v 0.574025 -0.468750 1.885819
v 0.562009 0.000000 1.856808
v 0.574025 -0.031250 1.885819
v 0.292635 -0.468750 1.971178
v 0.286510 -0.500000 1.940380
v 0.286510 0.000000 1.940380
v 0.292635 -0.031250 1.971178
v -0.000000 -0.500000 1.968599
v -0.000000 -0.468750 2.000000
v -0.000000 0.000000 1.968599
v -0.000000 -0.031250 2.000000
v -0.292635 -0.468750 1.971178
v -0.286510 -0.500000 1.940380
v -0.286510 0.000000 1.940380
v -0.292635 -0.031250 1.971178
v -0.574025 -0.468750 1.885819
v -0.562009 -0.500000 1.856808
v -0.562009 0.000000 1.856808
v -0.574025 -0.031250 1.885819
v -0.833355 -0.468750 1.747204
v -0.815910 -0.500000 1.721095
v -0.815910 0.000000 1.721095
v -0.833355 -0.031250 1.747204
v -1.060660 -0.468750 1.560660
v -1.038456 -0.500000 1.538456
v -1.038456 0.000000 1.538456
v -1.060660 -0.031250 1.560660
v -1.247204 -0.468750 1.333356
v -1.221095 -0.500000 1.315910
v -1.221095 0.000000 1.315910
v -1.247204 -0.031250 1.333356
v -1.385819 -0.468750 1.074025
v -1.356808 -0.500000 1.062009
v -1.356808 0.000000 1.062009
v -1.385819 -0.031250 1.074025
v -1.471178 -0.468750 0.792636
v -1.440380 -0.500000 0.786510
v -1.440380 0.000000 0.786510
v -1.471178 -0.031250 0.792636
v -1.500000 -0.468750 0.500000
v -1.468599 -0.500000 0.500000
v -1.468599 0.000000 0.500000
v -1.500000 -0.031250 0.500000
v -1.471178 -0.468750 0.207364
v -1.440380 -0.500000 0.213490
v -1.440380 0.000000 0.213490
v -1.471178 -0.031250 0.207364
v -1.356808 -0.500000 -0.062009
v -1.385819 -0.468750 -0.074025
v -1.356808 0.000000 -0.062009
v -1.385819 -0.031250 -0.074025
v -1.221095 -0.500000 -0.315909
v -1.247205 -0.468750 -0.333355
v -1.221095 0.000000 -0.315909
v -1.247205 -0.031250 -0.333355
v -1.038456 -0.500000 -0.538456
v -1.060660 -0.468750 -0.560660
v -1.038456 0.000000 -0.538456
v -1.060660 -0.031250 -0.560660
v 0.968750 0.000000 -0.595662
v 1.024157 -0.031250 -0.590618
v 1.000000 -0.031250 -0.641693
v 1.024157 -0.468750 -0.590618
v 0.968750 -0.500000 -0.595662
v 1.000000 -0.468750 -0.641693
v -1.024157 -0.031250 -0.590618
v -0.968750 0.000000 -0.595663
v -1.000000 -0.031250 -0.641693
v -1.024157 -0.468750 -0.590618
v -1.000000 -0.468750 -0.641693
v -0.968750 -0.500000 -0.595663
vn 0.8819 -0.0000 -0.4714
vn 0.6344 -0.0000 -0.7730
vn 0.9569 -0.0000 -0.2903
vn 0.9952 -0.0000 -0.0980
vn 0.9952 -0.0000 0.0980
vn 0.9569 -0.0000 0.2903
vn 0.8819 -0.0000 0.4714
vn 0.7730 -0.0000 0.6344
vn 0.6344 -0.0000 0.7730
vn 0.4714 -0.0000 0.8819
vn 0.2903 -0.0000 0.9569
vn 0.0980 -0.0000 0.9952
vn -0.0980 -0.0000 0.9952
vn -0.2903 -0.0000 0.9569
vn -0.4714 -0.0000 0.8819
vn -0.6344 -0.0000 0.7730
vn -0.7730 -0.0000 0.6344
vn -0.8819 -0.0000 0.4714
vn -0.9569 -0.0000 0.2903
vn -0.9952 -0.0000 0.0980
vn -0.9952 -0.0000 -0.0980
vn -0.9569 -0.0000 -0.2903
vn -0.8819 -0.0000 -0.4714
vn -0.7730 -0.0000 -0.6344
vn -0.6344 -0.0000 -0.7730
vn -0.0000 -1.0000 -0.0000
vn -1.0000 -0.0000 -0.0000
vn 1.0000 -0.0000 -0.0000
vn 0.7730 -0.0000 -0.6344
vn -0.0000 -0.0000 -1.0000
vn 0.5774 0.5774 -0.5774
vn 0.5774 -0.5774 -0.5774
vn -0.5774 0.5774 -0.5774
vn -0.5774 -0.5774 -0.5774
vn 0.4937 0.8377 -0.2335
vn 0.4937 -0.8377 -0.2335
vn -0.4937 0.8377 -0.2335
vn -0.4937 -0.8377 -0.2335
vn -0.0000 0.7071 -0.7071
vn 0.5466 -0.7071 -0.4486
vn 0.5466 0.7071 -0.4486
vn 0.6236 -0.7071 -0.3333
vn 0.6236 0.7071 -0.3333
vn 0.6767 -0.7071 -0.2053
vn 0.6767 0.7071 -0.2053
vn 0.7037 -0.7071 -0.0693
vn 0.7037 0.7071 -0.0693
vn 0.7037 -0.7071 0.0693
vn 0.7037 0.7071 0.0693
vn 0.6767 -0.7071 0.2053
vn 0.6767 0.7071 0.2053
vn 0.6236 -0.7071 0.3333
vn 0.6236 0.7071 0.3333
vn 0.5466 -0.7071 0.4486
vn 0.5466 0.7071 0.4486
vn 0.4486 -0.7071 0.5466
vn 0.4486 0.7071 0.5466
vn 0.3333 0.7071 0.6236
vn 0.2053 -0.7071 0.6767
vn 0.2053 0.7071 0.6767
vn 0.0693 -0.7071 0.7037
vn 0.0693 0.7071 0.7037
vn -0.0693 -0.7071 0.7037
vn -0.0693 0.7071 0.7037
vn -0.2053 -0.7071 0.6767
vn -0.2053 0.7071 0.6767
vn -0.3333 -0.7071 0.6236
vn -0.3333 0.7071 0.6236
vn -0.4486 -0.7071 0.5466
vn -0.4486 0.7071 0.5466
vn -0.5466 -0.7071 0.4486
vn -0.5466 0.7071 0.4486
vn -0.6236 -0.7071 0.3333
vn -0.6236 0.7071 0.3333
vn -0.6767 -0.7071 0.2053
vn -0.6767 0.7071 0.2053
vn -0.7037 -0.7071 0.0693
vn -0.7037 0.7071 0.0693
vn -0.7037 -0.7071 -0.0693
vn -0.7037 0.7071 -0.0693
vn -0.6767 -0.7071 -0.2053
vn -0.6767 0.7071 -0.2053
vn -0.6236 0.7071 -0.3333
vn -0.5466 -0.7071 -0.4486
vn -0.5466 0.7071 -0.4486
vn 0.4486 0.7071 -0.5466
vn 0.9040 -0.0000 -0.4276
vn -0.4486 0.7071 -0.5466
vn -0.4486 -0.7071 -0.5466
vn 0.7071 0.7071 -0.0000
vn -0.7071 -0.0000 -0.7071
vn 0.7071 -0.0000 -0.7071
vn 0.7071 -0.7071 -0.0000
vn -0.6236 -0.7071 -0.3333
vn -0.7071 0.7071 -0.0000
vn 0.3333 -0.7071 0.6236
vn -0.0000 -0.7071 -0.7071
vn -0.7071 -0.7071 -0.0000
vn -0.9040 -0.0000 -0.4276
vn 0.4486 -0.7071 -0.5466
vn -0.0000 1.0000 -0.0000
vt 0.715396 0.994272
vt 0.715396 0.572917
vt 0.715396 0.983856
vt 0.821894 0.572917
vt 0.722344 0.983856
vt 0.722344 0.572917
vt 0.715396 0.427083
vt 0.390625 0.496094
vt 0.821894 0.427083
vt 0.390625 0.500000
vt 0.722344 0.427083
vt 0.390625 0.503906
vt 0.399903 0.494511
vt 0.375000 0.503906
vt 0.375000 0.496094
vt 0.284604 0.983856
vt 0.284604 0.994272
vt 0.284604 0.572917
vt 0.821894 0.572917
vt 0.277656 0.572917
vt 0.277656 0.983856
vt 0.821894 0.427083
vt 0.277656 0.427083
vt 0.390625 0.246094
vt 0.390625 0.250000
vt 0.284604 0.427083
vt 0.390625 0.253906
vt 0.130092 0.500854
vt 0.375000 0.253906
vt 0.375000 0.246094
vt 0.904193 0.416470
vt 0.874673 0.500000
vt 0.875327 0.500000
vt 0.735832 0.427083
vt 0.731158 0.427083
vt 0.875000 0.531250
vt 0.730895 0.840424
vt 0.735832 0.572917
vt 0.731158 0.572917
vt 0.735832 0.847826
vt 0.680618 0.427083
vt 0.843750 0.531250
vt 0.939766 0.380722
vt 0.844077 0.500000
vt 0.843423 0.500000
vt 0.771504 0.766242
vt 0.680618 0.572917
vt 0.777309 0.772057
vt 0.963093 0.340056
vt 0.812827 0.500000
vt 0.812173 0.500000
vt 0.622957 0.427083
vt 0.812500 0.531250
vt 0.801679 0.681608
vt 0.622957 0.572917
vt 0.808129 0.685614
vt 0.560392 0.427083
vt 0.781250 0.531250
vt 0.977271 0.295953
vt 0.781577 0.500000
vt 0.780923 0.500000
vt 0.820260 0.589775
vt 0.560392 0.572917
vt 0.827108 0.591817
vt 0.495326 0.427083
vt 0.750000 0.531250
vt 0.982272 0.250096
vt 0.750327 0.500000
vt 0.749673 0.500000
vt 0.826535 0.494272
vt 0.495326 0.572917
vt 0.833516 0.494272
vt 0.430260 0.427083
vt 0.718750 0.531250
vt 0.978079 0.204244
vt 0.719077 0.500000
vt 0.718423 0.500000
vt 0.820260 0.398769
vt 0.430260 0.572917
vt 0.827108 0.396727
vt 0.367695 0.427083
vt 0.687500 0.531250
vt 0.964934 0.160156
vt 0.687827 0.500000
vt 0.687173 0.500000
vt 0.801679 0.306936
vt 0.367695 0.572917
vt 0.808129 0.302930
vt 0.310034 0.427083
vt 0.656250 0.531250
vt 0.943383 0.119525
vt 0.656577 0.500000
vt 0.655923 0.500000
vt 0.771504 0.222302
vt 0.310034 0.572917
vt 0.777309 0.216487
vt 0.259494 0.427083
vt 0.735832 0.427083
vt 0.625000 0.531250
vt 0.914280 0.083913
vt 0.625327 0.500000
vt 0.624673 0.500000
vt 0.730895 0.148120
vt 0.259494 0.572917
vt 0.735832 0.572917
vt 0.735832 0.140719
vt 0.878759 0.054686
vt 0.594077 0.500000
vt 0.593423 0.500000
vt 0.685292 0.427083
vt 0.593750 0.531250
vt 0.681413 0.087240
vt 0.685292 0.572917
vt 0.685292 0.078537
vt 0.838195 0.032969
vt 0.562173 0.500000
vt 0.562827 0.500000
vt 0.627631 0.427083
vt 0.562500 0.531250
vt 0.624959 0.042003
vt 0.627631 0.572917
vt 0.627631 0.032332
vt 0.565066 0.427083
vt 0.531250 0.531250
vt 0.794153 0.019595
vt 0.531577 0.500000
vt 0.530923 0.500000
vt 0.563704 0.014146
vt 0.565066 0.572917
vt 0.565066 0.003880
vt 0.748331 0.015078
vt 0.500327 0.500000
vt 0.499673 0.500000
vt 0.500000 0.427083
vt 0.500000 0.531250
vt 0.500000 0.004739
vt 0.500000 0.572917
vt 0.500000 -0.005728
vt 0.434934 0.427083
vt 0.468750 0.531250
vt 0.702490 0.019591
vt 0.469077 0.500000
vt 0.468423 0.500000
vt 0.436296 0.014146
vt 0.434934 0.572917
vt 0.434934 0.003880
vt 0.372369 0.427083
vt 0.437500 0.531250
vt 0.658393 0.032960
vt 0.437827 0.500000
vt 0.437173 0.500000
vt 0.375041 0.042003
vt 0.372369 0.572917
vt 0.372369 0.032332
vt 0.314708 0.427083
vt 0.406250 0.531250
vt 0.617733 0.054672
vt 0.406577 0.500000
vt 0.405923 0.500000
vt 0.318587 0.087240
vt 0.314708 0.572917
vt 0.314708 0.078537
vt 0.264168 0.427083
vt 0.259494 0.427083
vt 0.375000 0.531250
vt 0.582069 0.083892
vt 0.375327 0.500000
vt 0.374673 0.500000
vt 0.269105 0.148120
vt 0.264168 0.572917
vt 0.259494 0.572917
vt 0.264168 0.140719
vt 0.310034 0.427083
vt 0.343750 0.531250
vt 0.552767 0.119496
vt 0.344077 0.500000
vt 0.343423 0.500000
vt 0.228496 0.222302
vt 0.310034 0.572917
vt 0.222691 0.216487
vt 0.367695 0.427083
vt 0.312500 0.531250
vt 0.530944 0.160114
vt 0.312827 0.500000
vt 0.312173 0.500000
vt 0.198321 0.306936
vt 0.367695 0.572917
vt 0.191871 0.302930
vt 0.430260 0.427083
vt 0.281250 0.531250
vt 0.517428 0.204184
vt 0.281577 0.500000
vt 0.280923 0.500000
vt 0.179740 0.398769
vt 0.430260 0.572917
vt 0.172892 0.396727
vt 0.495326 0.427083
vt 0.250000 0.531250
vt 0.512724 0.250005
vt 0.250327 0.500000
vt 0.249673 0.500000
vt 0.173465 0.494272
vt 0.495326 0.572917
vt 0.166484 0.494272
vt 0.560392 0.427083
vt 0.218750 0.531250
vt 0.517003 0.295804
vt 0.219077 0.500000
vt 0.218423 0.500000
vt 0.179740 0.589776
vt 0.560392 0.572917
vt 0.172892 0.591817
vt 0.530125 0.339774
vt 0.187827 0.500000
vt 0.187173 0.500000
vt 0.622957 0.427083
vt 0.187500 0.531250
vt 0.198321 0.681608
vt 0.622957 0.572917
vt 0.191871 0.685614
vt 0.551893 0.380032
vt 0.155923 0.500000
vt 0.156577 0.500000
vt 0.680618 0.427083
vt 0.156250 0.531250
vt 0.228496 0.766242
vt 0.680618 0.572917
vt 0.222691 0.772057
vt 0.528346 0.428000
vt 0.125327 0.500000
vt 0.124673 0.500000
vt 0.731158 0.427083
vt 0.264168 0.427083
vt 0.125000 0.531250
vt 0.269105 0.840424
vt 0.731158 0.572917
vt 0.264168 0.572917
vt 0.264168 0.847826
vt 0.715396 0.859493
vt 0.727715 0.572917
vt 0.727715 0.857812
vt 0.737819 0.572917
vt 0.749175 0.572917
vt 0.722344 0.874836
vt 0.727715 0.427083
vt 0.737819 0.427083
vt 0.880018 0.531250
vt 0.852472 0.426455
vt 0.375000 0.548695
vt 0.883340 0.500000
vt 0.883340 0.531250
vt 0.749175 0.427083
vt 0.390625 0.544788
vt 0.272285 0.572917
vt 0.272285 0.857812
vt 0.737819 0.572917
vt 0.284604 0.859493
vt 0.277656 0.874836
vt 0.749175 0.572917
vt 0.272285 0.427083
vt 0.119981 0.531250
vt 0.737819 0.427083
vt 0.116660 0.531250
vt 0.390625 0.205212
vt 0.749175 0.427083
vt 0.222358 0.511137
vt 0.116660 0.500000
vt 0.375000 0.201305
s 0
usemtl Sand
f 17/41/1 20/47/1 24/55/1 22/52/1
f 114/240/2 16/38/2 14/34/2 116/245/2
f 22/52/3 24/55/3 28/63/3 25/57/3
f 25/57/4 28/63/4 32/71/4 29/65/4
f 29/65/5 32/71/5 36/79/5 33/73/5
f 33/73/6 36/79/6 40/87/6 37/81/6
f 37/81/7 40/87/7 44/95/7 41/89/7
f 41/89/8 44/95/8 48/104/8 45/97/8
f 45/98/9 48/105/9 52/113/9 50/110/9
f 50/110/10 52/113/10 56/121/10 54/118/10
f 54/118/11 56/121/11 60/129/11 57/123/11
f 57/123/12 60/129/12 64/137/12 62/134/12
f 62/134/13 64/137/13 68/145/13 65/139/13
f 65/139/14 68/145/14 72/153/14 69/147/14
f 69/147/15 72/153/15 76/161/15 73/155/15
f 73/155/16 76/161/16 80/170/16 77/163/16
f 77/164/17 80/171/17 84/179/17 81/173/17
f 81/173/18 84/179/18 88/187/18 85/181/18
f 85/181/19 88/187/19 92/195/19 89/189/19
f 89/189/20 92/195/20 96/203/20 93/197/20
f 93/197/21 96/203/21 100/211/21 97/205/21
f 97/205/22 100/211/22 104/219/22 102/216/22
f 102/216/23 104/219/23 108/227/23 106/224/23
f 106/224/24 108/227/24 112/236/24 110/232/24
f 110/233/25 112/237/25 119/254/25 122/260/25
f 6/13/26 117/248/26 13/31/26 18/43/26 21/49/26 26/59/26 30/67/26 34/75/26 38/83/26 42/91/26 46/100/26 49/107/26 53/115/26 58/125/26 61/131/26 66/141/26 70/149/26 74/157/26 78/166/26 82/175/26 86/183/26 90/191/26 94/199/26 98/207/26 101/213/26 105/221/26 109/229/26 124/266/26 12/28/26
f 121/259/27 9/19/27 10/22/27 123/265/27
f 118/252/28 5/9/28 3/4/28 115/243/28
f 14/35/29 16/39/29 20/47/29 17/41/29
f 11/26/30 8/18/30 1/2/30 4/7/30
f 1/1/31 2/3/31 3/5/31
f 4/8/32 5/10/32 6/15/32
f 7/16/33 8/17/33 9/21/33
f 10/24/34 11/25/34 12/30/34
f 113/239/35 114/241/35 115/244/35
f 116/247/36 117/250/36 118/251/36
f 119/255/37 120/257/37 121/258/37
f 122/261/38 123/263/38 124/267/38
f 1/1/39 8/17/39 7/16/39 2/3/39
f 14/36/40 17/42/40 18/44/40 13/32/40
f 15/37/41 19/46/41 20/48/41 16/40/41
f 17/42/42 22/53/42 21/50/42 18/45/42
f 19/46/43 23/54/43 24/56/43 20/48/43
f 22/53/44 25/58/44 26/60/44 21/51/44
f 23/54/45 27/62/45 28/64/45 24/56/45
f 25/58/46 29/66/46 30/68/46 26/61/46
f 27/62/47 31/70/47 32/72/47 28/64/47
f 29/66/48 33/74/48 34/76/48 30/69/48
f 31/70/49 35/78/49 36/80/49 32/72/49
f 33/74/50 37/82/50 38/84/50 34/77/50
f 35/78/51 39/86/51 40/88/51 36/80/51
f 37/82/52 41/90/52 42/92/52 38/85/52
f 39/86/53 43/94/53 44/96/53 40/88/53
f 41/90/54 45/99/54 46/101/54 42/93/54
f 43/94/55 47/103/55 48/106/55 44/96/55
f 45/99/56 50/111/56 49/108/56 46/102/56
f 47/103/57 51/112/57 52/114/57 48/106/57
f 51/112/58 55/120/58 56/122/58 52/114/58
f 54/119/59 57/124/59 58/126/59 53/116/59
f 55/120/60 59/128/60 60/130/60 56/122/60
f 57/124/61 62/135/61 61/132/61 58/127/61
f 59/128/62 63/136/62 64/138/62 60/130/62
f 62/135/63 65/140/63 66/142/63 61/133/63
f 63/136/64 67/144/64 68/146/64 64/138/64
f 65/140/65 69/148/65 70/150/65 66/143/65
f 67/144/66 71/152/66 72/154/66 68/146/66
f 69/148/67 73/156/67 74/158/67 70/151/67
f 71/152/68 75/160/68 76/162/68 72/154/68
f 73/156/69 77/165/69 78/167/69 74/159/69
f 75/160/70 79/169/70 80/172/70 76/162/70
f 77/165/71 81/174/71 82/176/71 78/168/71
f 79/169/72 83/178/72 84/180/72 80/172/72
f 81/174/73 85/182/73 86/184/73 82/177/73
f 83/178/74 87/186/74 88/188/74 84/180/74
f 85/182/75 89/190/75 90/192/75 86/185/75
f 87/186/76 91/194/76 92/196/76 88/188/76
f 89/190/77 93/198/77 94/200/77 90/193/77
f 91/194/78 95/202/78 96/204/78 92/196/78
f 93/198/79 97/206/79 98/208/79 94/201/79
f 95/202/80 99/210/80 100/212/80 96/204/80
f 97/206/81 102/217/81 101/214/81 98/209/81
f 99/210/82 103/218/82 104/220/82 100/212/82
f 103/218/83 107/226/83 108/228/83 104/220/83
f 106/225/84 110/234/84 109/230/84 105/222/84
f 107/226/85 111/235/85 112/238/85 108/228/85
f 16/40/86 114/241/86 113/239/86 15/37/86
f 114/242/87 116/246/87 118/252/87 115/243/87
f 111/235/88 120/257/88 119/255/88 112/238/88
f 110/234/89 122/261/89 124/267/89 109/231/89
f 2/3/90 113/239/90 115/244/90 3/5/90
f 8/18/91 11/26/91 10/23/91 9/20/91
f 3/6/92 5/11/92 4/7/92 1/2/92
f 5/12/93 118/253/93 117/249/93 6/14/93
f 102/217/94 106/225/94 105/223/94 101/215/94
f 9/21/95 121/258/95 120/257/95 7/16/95
f 50/111/96 54/119/96 53/117/96 49/109/96
f 6/15/97 12/29/97 11/27/97 4/8/97
f 12/30/98 124/268/98 123/264/98 10/24/98
f 121/259/99 123/265/99 122/262/99 119/256/99
f 13/33/100 117/250/100 116/247/100 14/36/100
f 120/257/101 111/235/101 107/226/101 103/218/101 99/210/101 95/202/101 91/194/101 87/186/101 83/178/101 79/169/101 75/160/101 71/152/101 67/144/101 63/136/101 59/128/101 55/120/101 51/112/101 47/103/101 43/94/101 39/86/101 35/78/101 31/70/101 27/62/101 23/54/101 19/46/101 15/37/101 113/239/101 2/3/101 7/16/101
